<?xml version="1.0" encoding="utf-8"?><svg xmlns="http://www.w3.org/2000/svg" xmlns:xlink="http://www.w3.org/1999/xlink" width="1536" height="754" preserveAspectRatio="xMidYMid" viewBox="0 0 1536 754" style="z-index:1;margin-right:-2px;display:block;background-repeat-y:initial;background-repeat-x:initial;background-color:rgb(241, 242, 243);animation-play-state:paused" ><g transform="" style="animation-play-state:paused" ><linearGradient id="lg-0.9606752208429525" x1="0" x2="1" y1="0" y2="0" style="animation-play-state:paused" ><stop stop-color="#0a0a0a" offset="0" style="animation-play-state:paused" ></stop>

  
<stop stop-color="#28292f" offset="1" style="animation-play-state:paused" ></stop></linearGradient>
<path d="M 0 0 L 0 742.794 Q 153.6 701.306 307.2 673.025 T 614.4 584.456 T 921.6 386.465 T 1228.8 432.226 T 1536 230.156 L 1536 0 Z" fill="url(#lg-0.9606752208429525)" opacity="0.4" style="opacity:0.4;animation-play-state:paused" ></path>
<path d="M 0 0 L 0 706.078 Q 153.6 643.299 307.2 617.671 T 614.4 557.673 T 921.6 462.159 T 1228.8 420.378 T 1536 348.386 L 1536 0 Z" fill="url(#lg-0.9606752208429525)" opacity="0.4" style="opacity:0.4;animation-play-state:paused" ></path>
<path d="M 0 0 L 0 676.863 Q 153.6 597.478 307.2 572.159 T 614.4 481.709 T 921.6 453.321 T 1228.8 443.231 T 1536 339.896 L 1536 0 Z" fill="url(#lg-0.9606752208429525)" opacity="0.4" style="opacity:0.4;animation-play-state:paused" ></path>
<path d="M 0 0 L 0 696.508 Q 153.6 666.751 307.2 635.908 T 614.4 564.014 T 921.6 433.177 T 1228.8 439.533 T 1536 326.415 L 1536 0 Z" fill="url(#lg-0.9606752208429525)" opacity="0.4" style="opacity:0.4;animation-play-state:paused" ></path>
<path d="M 0 0 L 0 734.998 Q 153.6 646.96 307.2 613.465 T 614.4 553.989 T 921.6 471.529 T 1228.8 415.336 T 1536 357.623 L 1536 0 Z" fill="url(#lg-0.9606752208429525)" opacity="0.4" style="opacity:0.4;animation-play-state:paused" ></path></g></svg>